{"title":"Teen Wolf Season 4 EP2 117 WEB-DL","uid":10579647,"size":491486220,"categoryP":"video","categoryS":"tv_shows","magnet":"?xt=urn:btih:5aa51767240d3f4c67ecd379b966669ee149a30f&amp;dn=Teen+Wolf+Season+4+EP2+117+WEB-DL&amp;tr=udp%3A%2F%2Ftracker.openbittorrent.com%3A80&amp;tr=udp%3A%2F%2Fopen.demonii.com%3A1337&amp;tr=udp%3A%2F%2Ftracker.coppersurfer.tk%3A6969&amp;tr=udp%3A%2F%2Fexodus.desync.com%3A6969","seeders":8,"leechers":0,"uploader":"jmanwf","files":3,"time":1405664455,"description":"Determined to put an end to Kate's plan, Scott is forced to team up with an unlikely ally to make sure it happens.\n\n\n\nFormat : MPEG-4\nFormat profile : Base Media\nCodec ID : isom\nFile size : 469 MiB\nDuration : 40mn 19s\nOverall bit rate mode : Variable\nOverall bit rate : 1 625 Kbps\nWriting application : Lavf54.59.106\n\nVideo\nID : 1\nFormat : AVC\nFormat/Info : Advanced Video Codec\nFormat profile : &lt;a class=&quot;__cf_email__&quot; href=&quot;/cdn-cgi/l/email-protection&quot; data-cfemail=&quot;632b0a040b232f574d52&quot;&gt;[email&amp;#160;protected]&lt;/a&gt;&lt;script cf-hash='f9e31' type=&quot;text/javascript&quot;&gt;\n/* &lt;![CDATA[ */!function(){try{var t=&quot;currentScript&quot;in document?document.currentScript:function(){for(var t=document.getElementsByTagName(&quot;script&quot;),e=t.length;e--;)if(t[e].getAttribute(&quot;cf-hash&quot;))return t[e]}();if(t&amp;&amp;t.previousSibling){var e,r,n,i,c=t.previousSibling,a=c.getAttribute(&quot;data-cfemail&quot;);if(a){for(e=&quot;&quot;,r=parseInt(a.substr(0,2),16),n=2;a.length-n;n+=2)i=parseInt(a.substr(n,2),16)^r,e+=String.fromCharCode(i);e=document.createTextNode(e),c.parentNode.replaceChild(e,c)}}}catch(u){}}();/* ]]&gt; */&lt;/script&gt;\nFormat settings, CABAC : Yes\nFormat settings, ReFrames : 4 frames\nCodec ID : avc1\nCodec ID/Info : Advanced Video Coding\nDuration : 40mn 17s\nBit rate : 1 500 Kbps\nWidth : 1 280 pixels\nHeight : 720 pixels\nDisplay aspect ratio : 16:9\nFrame rate mode : Constant\nFrame rate : 23.976 fps\nColor space : YUV\nChroma subsampling : 4:2:0\nBit depth : 8 bits\nScan type : Progressive\nBits/(Pixel*Frame) : 0.068\nStream size : 430 MiB (92%)\nWriting library : x264 core 123\n\nAudio\nID : 2\nFormat : AAC\nFormat/Info : Advanced Audio Codec\nFormat profile : LC\nCodec ID : 40\nDuration : 40mn 19s\nBit rate mode : Variable\nBit rate : 128 Kbps\nMaximum bit rate : 512 Kbps\nChannel(s) : 2 channels\nChannel positions : Front: L R\nSampling rate : 48.0 KHz\nCompression mode : Lossy\nStream size : 36.9 MiB (8%)","torrent":{"xt":"urn:btih:5aa51767240d3f4c67ecd379b966669ee149a30f","amp;dn":"Teen+Wolf+Season+4+EP2+117+WEB-DL","amp;tr":["udp%3A%2F%2Ftracker.openbittorrent.com%3A80","udp%3A%2F%2Fopen.demonii.com%3A1337","udp%3A%2F%2Ftracker.coppersurfer.tk%3A6969","udp%3A%2F%2Fexodus.desync.com%3A6969"],"infoHash":"5aa51767240d3f4c67ecd379b966669ee149a30f","infoHashBuffer":{"type":"Buffer","data":[90,165,23,103,36,13,63,76,103,236,211,121,185,102,102,158,225,73,163,15]},"announce":[],"urlList":[]}}